<!-- Copyright (c) 2023 Arkadi Chubrik (arkadi@chubrik.org) -->
<svg xmlns="http://www.w3.org/2000/svg" viewBox="0 0 902 774">
  <defs><g id="t">
    <rect width="134" height="134" fill="red"/>
    <rect width="128" height="128" x="3" y="3" fill="none" stroke="#0003" stroke-width="6"/>
    <rect width="64" height="64" x="35" y="35" fill="#500" rx="10" transform="rotate(45 67 67)"/>
  </g></defs>
  <use href="#t" x="128" y="0"/><use href="#t" x="384" y="0"/><use href="#t" x="0" y="128"/><use href="#t" x="128" y="128"/>
  <use href="#t" x="256" y="128"/><use href="#t" x="384" y="128"/><use href="#t" x="512" y="128"/><use href="#t" x="0" y="256"/>
  <use href="#t" x="128" y="256"/><use href="#t" x="256" y="256"/><use href="#t" x="384" y="256"/><use href="#t" x="512" y="256"/>
  <use href="#t" x="256" y="384"/><use href="#t" x="768" y="384"/><use href="#t" x="128" y="512"/><use href="#t" x="256" y="512"/>
  <use href="#t" x="384" y="512"/><use href="#t" x="768" y="512"/><use href="#t" x="128" y="640"/><use href="#t" x="256" y="640"/>
  <use href="#t" x="384" y="640"/><use href="#t" x="512" y="640"/><use href="#t" x="640" y="640"/>
</svg>
